IKResults
version=1
nRows=18
nColumns=38
inDegrees=yes

Units are S.I. units (second, meters, Newtons, ...)
If the header above contains a line with 'inDegrees', this indicates whether rotational values are in degrees (yes) or radians (no).

endheader
time	pelvis_tilt	pelvis_list	pelvis_rotation	pelvis_tx	pelvis_ty	pelvis_tz	hip_flexion_r	hip_adduction_r	hip_rotation_r	knee_angle_r	ankle_angle_r	subtalar_angle_r	mtp_angle_r	hip_flexion_l	hip_adduction_l	hip_rotation_l	knee_angle_l	ankle_angle_l	subtalar_angle_l	mtp_angle_l	lumbar_extension	lumbar_bending	lumbar_rotation	arm_flex_r	arm_add_r	arm_rot_r	elbow_flex_r	pro_sup_r	wrist_flex_r	wrist_dev_r	arm_flex_l	arm_add_l	arm_rot_l	elbow_flex_l	pro_sup_l	wrist_flex_l	wrist_dev_l
      0.00000000	    -12.22457585	   -145.45654627	   -101.17228382	      0.02983191	     -0.09985437	      1.66259170	     34.32527656	    -13.80050410	    -13.26872117	     32.68306824	     -5.00433554	      0.37700000	      0.00000000	     37.55214664	      3.84820620	     -6.32098298	     18.49965753	     -5.06954805	      0.00000000	      0.00000000	     43.49207442	    -10.13973278	     -3.68621747	     -9.20440689	    -32.21776896	     26.51559343	     71.06511103	    111.31912788	      0.00000000	      0.00000000	    -18.56693135	    -46.38992188	     40.75060464	     72.01432845	    111.32029949	      0.00000000	      0.00000000
      0.01700000	    -11.74251523	   -145.04098285	   -101.54224070	      0.02869348	     -0.10003745	      1.66136417	     34.87985301	    -12.88579497	    -13.09382272	     31.80166023	     -5.63865371	      0.37700000	      0.00000000	     36.34848723	      3.10116826	     -7.14002592	     17.25196677	     -4.96570284	      0.00000000	      0.00000000	     43.88868610	     -9.43732374	     -3.34506041	     -9.68451105	    -32.58928449	     26.73358613	     71.04566770	    111.32674982	      0.00000000	      0.00000000	    -18.76818962	    -46.54549035	     40.90660357	     72.49226936	    111.29563000	      0.00000000	      0.00000000
      0.03300000	    -11.25113191	   -144.59521008	   -101.86465480	      0.02793004	     -0.10000540	      1.66021205	     35.43960308	    -12.01849561	    -13.00833664	     30.91667527	     -6.35295019	      0.37700000	      0.00000000	     35.27020922	      2.39536435	     -8.08790995	     16.13198800	     -4.88901742	      0.00000000	      0.00000000	     44.30113246	     -8.71906037	     -3.03626646	    -10.16115965	    -33.06746120	     26.90279463	     71.04431110	    111.33210102	      0.00000000	      0.00000000	    -18.96929363	    -46.71556494	     41.05848503	     73.18836827	    111.25892579	      0.00000000	      0.00000000
      0.05000000	    -10.73256394	   -144.29849730	   -101.95121357	      0.02741887	     -0.09988787	      1.65969003	     36.01755595	    -11.36547190	    -13.28015354	     30.48561534	     -6.84353385	      0.37700000	      0.00000000	     34.24290604	      1.81516854	     -8.82995278	     15.28860241	     -4.80823566	      0.00000000	      0.00000000	     44.39322801	     -8.19494967	     -2.87695571	    -10.51786033	    -33.39751816	     26.99919952	     70.97772202	    111.33918866	      0.00000000	      0.00000000	    -19.07049333	    -46.92665122	     41.09415846	     73.87348367	    111.21945987	      0.00000000	      0.00000000
      0.06700000	    -10.18304803	   -143.99975661	   -102.30946194	      0.02678242	     -0.09976487	      1.65867552	     36.38813828	    -10.49218199	    -13.42752916	     29.56999337	     -7.60004199	      0.37700000	      0.00000000	     33.19998794	      1.08165973	     -9.61680573	     14.48175907	     -4.83701139	      0.00000000	      0.00000000	     44.61135939	     -7.38248600	     -2.55727364	    -10.91998266	    -33.84556941	     27.10098692	     71.04202075	    111.33873508	      0.00000000	      0.00000000	    -19.30617094	    -47.07525409	     41.15890888	     74.64717410	    111.17539839	      0.00000000	      0.00000000
      0.08300000	     -9.91656523	   -142.11316275	   -103.05010081	      0.02632553	     -0.09765697	      1.65693865	     38.27209755	     -9.33452428	    -13.31782410	     28.37263389	     -8.62470218	      0.37700000	      0.00000000	     33.92757605	      0.12943957	    -10.43680629	     13.97674046	     -4.98441641	      0.00000000	      0.00000000	     47.08706928	     -6.19201227	     -2.15676023	    -12.04521590	    -34.78700928	     27.32601810	     71.93882846	    111.28629688	      0.00000000	      0.00000000	    -20.39338581	    -47.03986736	     40.87367936	     75.41974983	    111.11395887	      0.00000000	      0.00000000
      0.10000000	     -9.34946087	   -142.01070361	   -103.12732875	      0.02627940	     -0.09732199	      1.65635820	     38.51264098	     -8.69021060	    -13.69610018	     27.74870080	     -9.03220830	      0.37700000	      0.00000000	     33.09308688	     -0.44205774	    -10.82661618	     13.83155880	     -4.95741620	      0.00000000	      0.00000000	     46.96979416	     -5.58722842	     -2.02787525	    -12.31657428	    -35.12833345	     27.34691024	     72.02699188	    111.28097577	      0.00000000	      0.00000000	    -20.64612722	    -47.10346628	     40.66519628	     76.07525552	    111.06663042	      0.00000000	      0.00000000
      0.11700000	     -8.53876865	   -141.82865227	   -103.01055140	      0.02676377	     -0.09675349	      1.65573820	     38.75741707	     -7.92583178	    -14.25777210	     27.13699707	     -9.37429653	      0.37700000	      0.00000000	     32.53315764	     -1.18062705	    -10.92498814	     14.11964847	     -4.78993642	      0.00000000	      0.00000000	     46.88598592	     -4.77017189	     -2.10422178	    -12.60298363	    -35.61950203	     27.35095869	     72.26927210	    111.26544149	      0.00000000	      0.00000000	    -21.09972535	    -46.84291241	     39.93303038	     76.48338984	    111.01318949	      0.00000000	      0.00000000
      0.13300000	     -7.76914980	   -141.69943126	   -102.75321199	      0.02743244	     -0.09600255	      1.65503427	     38.95752368	     -7.31707205	    -15.00743690	     26.61346616	     -9.46796478	      0.37700000	      0.00000000	     32.09046872	     -1.80809976	    -10.75342092	     14.66984610	     -4.62230659	      0.00000000	      0.00000000	     46.76994587	     -4.13582057	     -2.37079402	    -12.74972975	    -36.08086379	     27.46310543	     72.56749438	    111.25146643	      0.00000000	      0.00000000	    -21.80080921	    -46.58985609	     38.99839255	     77.05341700	    110.94257292	      0.00000000	      0.00000000
      0.15000000	     -7.02673376	   -141.40209493	   -102.30912479	      0.02844432	     -0.09486963	      1.65416791	     39.35120786	     -6.84605633	    -15.94333212	     26.21944140	     -9.36114372	      0.37700000	      0.00000000	     31.93093347	     -2.34425608	    -10.23377590	     15.35142515	     -4.59704189	      0.00000000	      0.00000000	     46.89773655	     -3.69376830	     -3.34365780	    -11.90438476	    -36.84810263	     29.16709449	     72.63356600	    111.31403088	      0.00000000	      0.00000000	    -24.21315838	    -45.71675688	     35.43079810	     77.72328754	    110.77792258	      0.00000000	      0.00000000
      0.16700000	     -6.37054398	   -141.34947854	   -102.07335244	      0.02926697	     -0.09376247	      1.65347167	     39.65575057	     -6.36549117	    -16.49066686	     26.02057744	     -8.93498724	      0.37700000	      0.00000000	     31.64557269	     -2.87237829	     -9.93220193	     16.25317377	     -4.47857675	      0.00000000	      0.00000000	     46.78104563	     -3.14467747	     -3.48242506	    -12.05856150	    -37.33253237	     29.33624129	     73.05347695	    111.29484630	      0.00000000	      0.00000000	    -24.59880461	    -45.50892607	     34.95254362	     78.18224657	    110.73692749	      0.00000000	      0.00000000
      0.18400000	     -5.50118683	   -140.91686966	   -101.45283400	      0.03057732	     -0.09213911	      1.65221467	     40.17745117	     -5.83769565	    -17.36270935	     25.72999722	     -8.40156119	      0.37700000	      0.00000000	     31.80015297	     -3.47518278	     -9.15481906	     17.25107861	     -4.46901916	      0.00000000	      0.00000000	     47.17763281	     -2.62809985	     -4.72297896	    -11.06706588	    -38.30485511	     31.42623256	     73.36471550	    111.35314073	      0.00000000	      0.00000000	    -26.98573599	    -44.40453544	     31.60323028	     78.70947539	    110.62194679	      0.00000000	      0.00000000
      0.20000000	     -4.61801403	   -140.73973167	   -100.87528998	      0.03178290	     -0.09061404	      1.65113261	     40.57916478	     -5.30902841	    -17.99533633	     25.65444383	     -7.56996489	      0.37700000	      0.00000000	     31.77086971	     -4.07804204	     -8.42902537	     18.36516498	     -4.42225532	      0.00000000	      0.00000000	     47.27529107	     -2.02611207	     -5.25216477	    -11.13600697	    -39.00678811	     31.84377664	     73.98608453	    111.33035611	      0.00000000	      0.00000000	    -27.52453638	    -43.92863443	     30.87016748	     78.96141559	    110.59234189	      0.00000000	      0.00000000
      0.21700000	     -3.75694459	   -140.21327447	   -100.21978557	      0.03292060	     -0.08859885	      1.64963473	     41.30929313	     -4.76432618	    -18.54504632	     25.57165401	     -6.54254530	      0.37700000	      0.00000000	     32.08576830	     -4.67202461	     -7.61239099	     19.40555562	     -4.57093484	      0.00000000	      0.00000000	     47.92240625	     -1.51501481	     -6.38129962	    -10.37498967	    -40.04731647	     33.80265633	     74.61316695	    111.36656908	      0.00000000	      0.00000000	    -29.28737092	    -42.99450746	     28.63193146	     79.37018795	    110.51815172	      0.00000000	      0.00000000
      0.23400000	     -3.29073189	   -140.21195232	   -100.05948487	      0.03330002	     -0.08712519	      1.64853787	     41.86299902	     -4.37365676	    -18.38113313	     25.90039362	     -5.11733747	      0.37700000	      0.00000000	     31.78849481	     -5.06547053	     -7.38608240	     20.21885364	     -4.95951072	      0.00000000	      0.00000000	     47.97082610	     -1.12969998	     -6.45669033	    -10.53513169	    -40.53585479	     34.08464442	     75.09839002	    111.34862078	      0.00000000	      0.00000000	    -29.42915097	    -42.79320377	     28.45193835	     79.52324158	    110.50498341	      0.00000000	      0.00000000
      0.25000000	     -2.27552951	   -139.09447930	    -99.36554448	      0.03428584	     -0.08425350	      1.64671761	     43.23534752	     -3.59734761	    -18.73741697	     25.91555275	     -3.95258378	      0.37700000	      0.00000000	     32.71442107	     -5.88651906	     -6.55066501	     21.25813454	     -5.16917189	      0.00000000	      0.00000000	     49.47183368	     -0.41787544	     -8.17970011	     -8.84983548	    -42.23010834	     37.90479583	     76.09966649	    111.43107233	      0.00000000	      0.00000000	    -32.15359455	    -41.27138168	     25.02015299	     80.04533065	    110.41242894	      0.00000000	      0.00000000
      0.26700000	     -1.64163961	   -139.04116464	    -99.09639415	      0.03441827	     -0.08266887	      1.64559289	     43.91727541	     -3.05595862	    -18.33609730	     26.41910762	     -2.32043405	      0.37700000	      0.00000000	     32.46663721	     -6.42812282	     -6.34609861	     22.01889536	     -5.63327066	      0.00000000	      0.00000000	     49.60288770	      0.08917268	     -8.39733073	     -8.98395148	    -42.90485578	     38.28974383	     76.87074123	    111.39946608	      0.00000000	      0.00000000	    -32.19979581	    -40.98864452	     24.90520229	     80.00227248	    110.41658807	      0.00000000	      0.00000000
      0.28400000	     -0.63164986	   -137.96599197	    -98.53869988	      0.03477356	     -0.08007363	      1.64396973	     45.41356747	     -2.19059018	    -18.34668788	     26.62783993	     -1.10538561	      0.37700000	      0.00000000	     33.22441728	     -7.32602039	     -5.84099534	     22.68540846	     -6.25855593	      0.00000000	      0.00000000	     51.13918654	      0.87930803	     -9.68555821	     -7.67568369	    -44.46335293	     41.54235724	     77.87747791	    111.45408290	      0.00000000	      0.00000000	    -33.83351776	    -39.87548508	     22.98334351	     80.26976806	    110.39978028	      0.00000000	      0.00000000
